<svg width="100" height="123" viewBox="0 0 100 123" fill="none" xmlns="http://www.w3.org/2000/svg">
<g filter="url(#filter0_bi_1_20198)">
<path d="M49.7274 122.023L32 91.3187L67.4548 91.3187L49.7274 122.023Z" fill="white" fill-opacity="0.1"/>
</g>
<g filter="url(#filter1_bi_1_20198)">
<circle cx="49.728" cy="50.1709" r="49.5434" fill="white" fill-opacity="0.1"/>
</g>
<g clip-path="url(#clip0_1_20198)">
<path d="M49.7285 74.2334C64.9154 74.2334 77.2285 63.4603 77.2285 50.1709C77.2285 36.8815 64.9154 26.1084 49.7285 26.1084C34.5416 26.1084 22.2285 36.8815 22.2285 50.1709C22.2285 56.2209 24.7826 61.7553 29.0004 65.9834C28.667 69.4759 27.567 73.3053 26.3501 76.179C26.0785 76.8184 26.6045 77.5334 27.2885 77.4234C35.0435 76.1515 39.6532 74.199 41.6573 73.1815C44.2901 73.8837 47.0037 74.2374 49.7285 74.2334Z" fill="white"/>
<path d="M49.7285 74.2334C64.9154 74.2334 77.2285 63.4603 77.2285 50.1709C77.2285 36.8815 64.9154 26.1084 49.7285 26.1084C34.5416 26.1084 22.2285 36.8815 22.2285 50.1709C22.2285 56.2209 24.7826 61.7553 29.0004 65.9834C28.667 69.4759 27.567 73.3053 26.3501 76.179C26.0785 76.8184 26.6045 77.5334 27.2885 77.4234C35.0435 76.1515 39.6532 74.199 41.6573 73.1815C44.2901 73.8837 47.0037 74.2374 49.7285 74.2334Z" fill="url(#paint0_linear_1_20198)"/>
<path d="M49.7284 42.2238L51.872 48.8211H58.8088L53.1968 52.8985L55.3404 59.4958L49.7284 55.4184L44.1164 59.4958L46.26 52.8985L40.648 48.8211H47.5848L49.7284 42.2238Z" fill="white"/>
<path d="M49.7284 42.2238L51.872 48.8211H58.8088L53.1968 52.8985L55.3404 59.4958L49.7284 55.4184L44.1164 59.4958L46.26 52.8985L40.648 48.8211H47.5848L49.7284 42.2238Z" fill="white"/>
</g>
<defs>
<filter id="filter0_bi_1_20198" x="12.0532" y="71.3719" width="75.3487" height="71.6516" filterUnits="userSpaceOnUse" color-interpolation-filters="sRGB">
<feFlood flood-opacity="0" result="BackgroundImageFix"/>
<feGaussianBlur in="BackgroundImageFix" stdDeviation="9.9734"/>
<feComposite in2="SourceAlpha" operator="in" result="effect1_backgroundBlur_1_20198"/>
<feBlend mode="normal" in="SourceGraphic" in2="effect1_backgroundBlur_1_20198" result="shape"/>
<feColorMatrix in="SourceAlpha" type="matrix" values="0 0 0 0 0 0 0 0 0 0 0 0 0 0 0 0 0 0 127 0" result="hardAlpha"/>
<feOffset dy="21"/>
<feGaussianBlur stdDeviation="41.5"/>
<feComposite in2="hardAlpha" operator="arithmetic" k2="-1" k3="1"/>
<feColorMatrix type="matrix" values="0 0 0 0 0.526736 0 0 0 0 0.154167 0 0 0 0 1 0 0 0 0.5 0"/>
<feBlend mode="normal" in2="shape" result="effect2_innerShadow_1_20198"/>
</filter>
<filter id="filter1_bi_1_20198" x="-19.7622" y="-19.3194" width="138.981" height="140.034" filterUnits="userSpaceOnUse" color-interpolation-filters="sRGB">
<feFlood flood-opacity="0" result="BackgroundImageFix"/>
<feGaussianBlur in="BackgroundImageFix" stdDeviation="9.9734"/>
<feComposite in2="SourceAlpha" operator="in" result="effect1_backgroundBlur_1_20198"/>
<feBlend mode="normal" in="SourceGraphic" in2="effect1_backgroundBlur_1_20198" result="shape"/>
<feColorMatrix in="SourceAlpha" type="matrix" values="0 0 0 0 0 0 0 0 0 0 0 0 0 0 0 0 0 0 127 0" result="hardAlpha"/>
<feOffset dy="21"/>
<feGaussianBlur stdDeviation="41.5"/>
<feComposite in2="hardAlpha" operator="arithmetic" k2="-1" k3="1"/>
<feColorMatrix type="matrix" values="0 0 0 0 0.526736 0 0 0 0 0.154167 0 0 0 0 1 0 0 0 0.5 0"/>
<feBlend mode="normal" in2="shape" result="effect2_innerShadow_1_20198"/>
</filter>
<linearGradient id="paint0_linear_1_20198" x1="16.5389" y1="17.082" x2="75.8639" y2="17.5664" gradientUnits="userSpaceOnUse">
<stop offset="0.0364395" stop-color="#FBF4B7"/>
<stop offset="0.322909" stop-color="#31CDE2"/>
<stop offset="0.635422" stop-color="#5276FF"/>
<stop offset="1" stop-color="#D874FF"/>
</linearGradient>
<clipPath id="clip0_1_20198">
<rect width="55" height="55" fill="white" transform="translate(22.2285 22.6709)"/>
</clipPath>
</defs>
</svg>
