<svg width="114" height="419" viewBox="0 0 114 419" fill="none" xmlns="http://www.w3.org/2000/svg">
<g filter="url(#filter0_bi_1_20338)">
<rect x="0.524414" y="0.82959" width="113.07" height="417.24" rx="24" fill="white" fill-opacity="0.1"/>
<rect x="2.02441" y="2.32959" width="110.07" height="414.24" rx="22.5" stroke="url(#paint0_linear_1_20338)" stroke-width="3"/>
</g>
<path d="M63.1596 237.97L47.9196 232.73C46.9862 232.41 46.1329 231.956 45.3596 231.37C44.5862 230.783 43.9196 230.09 43.3596 229.29C42.7996 228.49 42.3596 227.61 42.0396 226.65C41.7196 225.663 41.5596 224.636 41.5596 223.57L41.5596 205.89C41.5596 204.85 41.7196 203.916 42.0396 203.09C42.3329 202.263 42.7596 201.583 43.3196 201.05C43.8796 200.516 44.5462 200.17 45.3196 200.01C46.0929 199.85 46.9596 199.93 47.9196 200.25C50.5062 201.103 53.0529 201.97 55.5596 202.85C58.0396 203.703 60.5596 204.583 63.1196 205.49C63.9462 205.783 64.7462 206.21 65.5196 206.77C66.2662 207.303 66.9329 207.943 67.5196 208.69C68.1062 209.436 68.5862 210.276 68.9596 211.21C69.3062 212.143 69.5062 213.156 69.5596 214.25L74.8796 210.89L74.8796 220.65C74.8796 220.97 74.7862 221.276 74.5996 221.57C74.4396 221.836 74.2129 222.036 73.9196 222.17L69.5596 224.49L69.5596 232.33C69.5596 233.396 69.3996 234.356 69.0796 235.21C68.7329 236.063 68.2796 236.743 67.7196 237.25C67.1329 237.756 66.4529 238.076 65.6796 238.21C64.9062 238.37 64.0662 238.29 63.1596 237.97ZM62.7996 227.81L62.7996 215.41C62.7996 215.036 62.6262 214.77 62.2796 214.61C59.9596 213.836 58.0129 213.196 56.4396 212.69C54.8396 212.156 53.5329 211.73 52.5196 211.41C51.4796 211.063 50.6796 210.81 50.1196 210.65C49.5329 210.49 49.1196 210.383 48.8796 210.33C48.6129 210.276 48.4529 210.263 48.3996 210.29C48.3462 210.316 48.3196 210.356 48.3196 210.41L48.3196 226.17C48.3196 226.383 48.4262 226.53 48.6396 226.61C48.8262 226.663 48.9862 226.61 49.1196 226.45L50.9996 224.37C53.9329 225.33 56.1996 226.063 57.7996 226.57C59.3996 227.076 60.5729 227.436 61.3196 227.65C62.0396 227.863 62.4662 227.97 62.5996 227.97C62.7329 227.943 62.7996 227.89 62.7996 227.81ZM69.5196 199.973C68.0529 199.466 66.5862 198.96 65.1196 198.453C63.6529 197.946 62.1596 197.44 60.6396 196.933C59.3862 196.48 58.0662 196.013 56.6796 195.533C55.2662 195.026 53.8529 194.533 52.4396 194.053C51.0262 193.573 49.6262 193.106 48.2396 192.653C46.8262 192.173 45.4929 191.72 44.2396 191.293L43.5996 192.253C43.3862 192.546 43.1729 192.853 42.9596 193.173C42.7462 193.493 42.5329 193.813 42.3196 194.133C42.1862 194.32 42.0262 194.373 41.8396 194.293C41.6262 194.213 41.5196 194.066 41.5196 193.853L41.5196 180.533L52.1996 184.053C53.6396 184.533 55.1196 185.026 56.6396 185.533C58.1596 186.04 59.6396 186.533 61.0796 187.013C62.4929 187.493 63.8262 187.946 65.0796 188.373C66.3062 188.773 67.3729 189.12 68.2796 189.413C69.1062 189.68 69.5196 190.253 69.5196 191.133L69.5196 199.973Z" fill="white"/>
<defs>
<filter id="filter0_bi_1_20338" x="-19.4224" y="-19.1172" width="152.964" height="458.187" filterUnits="userSpaceOnUse" color-interpolation-filters="sRGB">
<feFlood flood-opacity="0" result="BackgroundImageFix"/>
<feGaussianBlur in="BackgroundImageFix" stdDeviation="9.9734"/>
<feComposite in2="SourceAlpha" operator="in" result="effect1_backgroundBlur_1_20338"/>
<feBlend mode="normal" in="SourceGraphic" in2="effect1_backgroundBlur_1_20338" result="shape"/>
<feColorMatrix in="SourceAlpha" type="matrix" values="0 0 0 0 0 0 0 0 0 0 0 0 0 0 0 0 0 0 127 0" result="hardAlpha"/>
<feOffset dy="21"/>
<feGaussianBlur stdDeviation="41.5"/>
<feComposite in2="hardAlpha" operator="arithmetic" k2="-1" k3="1"/>
<feColorMatrix type="matrix" values="0 0 0 0 0.526736 0 0 0 0 0.154167 0 0 0 0 1 0 0 0 0.5 0"/>
<feBlend mode="normal" in2="shape" result="effect2_innerShadow_1_20338"/>
</filter>
<linearGradient id="paint0_linear_1_20338" x1="-11.1725" y1="-72.5472" x2="110.797" y2="-72.2954" gradientUnits="userSpaceOnUse">
<stop offset="0.0364395" stop-color="#FBF4B7"/>
<stop offset="0.322909" stop-color="#31CDE2"/>
<stop offset="0.635422" stop-color="#5276FF"/>
<stop offset="1" stop-color="#D874FF"/>
</linearGradient>
</defs>
</svg>
