<svg width="114" height="419" viewBox="0 0 114 419" fill="none" xmlns="http://www.w3.org/2000/svg">
<g filter="url(#filter0_bi_1_20341)">
<rect x="0.524414" y="0.82959" width="113.07" height="417.24" rx="24" fill="white" fill-opacity="0.1"/>
<rect x="2.02441" y="2.32959" width="110.07" height="414.24" rx="22.5" stroke="url(#paint0_linear_1_20341)" stroke-width="3"/>
</g>
<path d="M63.1596 248.97L47.9196 243.73C46.9862 243.41 46.1329 242.956 45.3596 242.37C44.5862 241.783 43.9196 241.09 43.3596 240.29C42.7996 239.49 42.3596 238.61 42.0396 237.65C41.7196 236.663 41.5596 235.636 41.5596 234.57L41.5596 216.89C41.5596 215.85 41.7196 214.916 42.0396 214.09C42.3329 213.263 42.7596 212.583 43.3196 212.05C43.8796 211.516 44.5462 211.17 45.3196 211.01C46.0929 210.85 46.9596 210.93 47.9196 211.25C50.5062 212.103 53.0529 212.97 55.5596 213.85C58.0396 214.703 60.5596 215.583 63.1196 216.49C63.9462 216.783 64.7462 217.21 65.5196 217.77C66.2662 218.303 66.9329 218.943 67.5196 219.69C68.1062 220.436 68.5862 221.276 68.9596 222.21C69.3062 223.143 69.5062 224.156 69.5596 225.25L74.8796 221.89L74.8796 231.65C74.8796 231.97 74.7862 232.276 74.5996 232.57C74.4396 232.836 74.2129 233.036 73.9196 233.17L69.5596 235.49L69.5596 243.33C69.5596 244.396 69.3996 245.356 69.0796 246.21C68.7329 247.063 68.2796 247.743 67.7196 248.25C67.1329 248.756 66.4529 249.076 65.6796 249.21C64.9062 249.37 64.0662 249.29 63.1596 248.97ZM62.7996 238.81L62.7996 226.41C62.7996 226.036 62.6262 225.77 62.2796 225.61C59.9596 224.836 58.0129 224.196 56.4396 223.69C54.8396 223.156 53.5329 222.73 52.5196 222.41C51.4796 222.063 50.6796 221.81 50.1196 221.65C49.5329 221.49 49.1196 221.383 48.8796 221.33C48.6129 221.276 48.4529 221.263 48.3996 221.29C48.3462 221.316 48.3196 221.356 48.3196 221.41L48.3196 237.17C48.3196 237.383 48.4262 237.53 48.6396 237.61C48.8262 237.663 48.9862 237.61 49.1196 237.45L50.9996 235.37C53.9329 236.33 56.1996 237.063 57.7996 237.57C59.3996 238.076 60.5729 238.436 61.3196 238.65C62.0396 238.863 62.4662 238.97 62.5996 238.97C62.7329 238.943 62.7996 238.89 62.7996 238.81ZM57.5196 206.973C56.8796 206.76 56.4796 206.333 56.3196 205.693L50.9196 181.693C50.8929 181.613 50.7996 181.493 50.6396 181.333L47.3596 180.213C47.2262 180.16 47.0929 180.186 46.9596 180.293C46.8262 180.373 46.7596 180.493 46.7596 180.653L46.7596 203.533L42.7196 202.173C41.9196 201.88 41.5196 201.32 41.5196 200.493L41.5196 174.693C41.5196 173.84 41.7062 173.093 42.0796 172.453C42.4262 171.813 42.8929 171.293 43.4796 170.893C44.0396 170.493 44.6796 170.24 45.3996 170.133C46.0929 170.026 46.7996 170.093 47.5196 170.333L52.8396 172.133C53.4796 172.346 53.8662 172.773 53.9996 173.413L59.7596 197.733L61.9196 198.453C61.9462 198.48 62.0129 198.6 62.1196 198.813C62.2262 199 62.3462 199.24 62.4796 199.533C62.6129 199.826 62.7729 200.16 62.9596 200.533C63.1196 200.906 63.2796 201.28 63.4396 201.653C63.5462 201.866 63.7196 201.946 63.9596 201.893C64.1996 201.84 64.3196 201.693 64.3196 201.453L64.3196 175.973L66.9596 176.853C67.1729 176.906 67.3862 176.973 67.5996 177.053C67.8129 177.106 68.0529 177.186 68.3196 177.293C69.1462 177.56 69.5596 178.12 69.5596 178.973L69.5596 210.973L57.5196 206.973Z" fill="white"/>
<defs>
<filter id="filter0_bi_1_20341" x="-19.4224" y="-19.1172" width="152.964" height="458.187" filterUnits="userSpaceOnUse" color-interpolation-filters="sRGB">
<feFlood flood-opacity="0" result="BackgroundImageFix"/>
<feGaussianBlur in="BackgroundImageFix" stdDeviation="9.9734"/>
<feComposite in2="SourceAlpha" operator="in" result="effect1_backgroundBlur_1_20341"/>
<feBlend mode="normal" in="SourceGraphic" in2="effect1_backgroundBlur_1_20341" result="shape"/>
<feColorMatrix in="SourceAlpha" type="matrix" values="0 0 0 0 0 0 0 0 0 0 0 0 0 0 0 0 0 0 127 0" result="hardAlpha"/>
<feOffset dy="21"/>
<feGaussianBlur stdDeviation="41.5"/>
<feComposite in2="hardAlpha" operator="arithmetic" k2="-1" k3="1"/>
<feColorMatrix type="matrix" values="0 0 0 0 0.526736 0 0 0 0 0.154167 0 0 0 0 1 0 0 0 0.5 0"/>
<feBlend mode="normal" in2="shape" result="effect2_innerShadow_1_20341"/>
</filter>
<linearGradient id="paint0_linear_1_20341" x1="-11.1725" y1="-72.5472" x2="110.797" y2="-72.2954" gradientUnits="userSpaceOnUse">
<stop offset="0.0364395" stop-color="#FBF4B7"/>
<stop offset="0.322909" stop-color="#31CDE2"/>
<stop offset="0.635422" stop-color="#5276FF"/>
<stop offset="1" stop-color="#D874FF"/>
</linearGradient>
</defs>
</svg>
