<svg width="114" height="419" viewBox="0 0 114 419" fill="none" xmlns="http://www.w3.org/2000/svg">
<g filter="url(#filter0_bi_1_20344)">
<rect x="0.524414" y="0.82959" width="113.07" height="417.24" rx="24" fill="white" fill-opacity="0.1"/>
<rect x="2.02441" y="2.32959" width="110.07" height="414.24" rx="22.5" stroke="url(#paint0_linear_1_20344)" stroke-width="3"/>
</g>
<path d="M63.1596 247.47L47.9196 242.23C46.9862 241.91 46.1329 241.456 45.3596 240.87C44.5862 240.283 43.9196 239.59 43.3596 238.79C42.7996 237.99 42.3596 237.11 42.0396 236.15C41.7196 235.163 41.5596 234.136 41.5596 233.07L41.5596 215.39C41.5596 214.35 41.7196 213.416 42.0396 212.59C42.3329 211.763 42.7596 211.083 43.3196 210.55C43.8796 210.016 44.5462 209.67 45.3196 209.51C46.0929 209.35 46.9596 209.43 47.9196 209.75C50.5062 210.603 53.0529 211.47 55.5596 212.35C58.0396 213.203 60.5596 214.083 63.1196 214.99C63.9462 215.283 64.7462 215.71 65.5196 216.27C66.2662 216.803 66.9329 217.443 67.5196 218.19C68.1062 218.936 68.5862 219.776 68.9596 220.71C69.3062 221.643 69.5062 222.656 69.5596 223.75L74.8796 220.39L74.8796 230.15C74.8796 230.47 74.7862 230.776 74.5996 231.07C74.4396 231.336 74.2129 231.536 73.9196 231.67L69.5596 233.99L69.5596 241.83C69.5596 242.896 69.3996 243.856 69.0796 244.71C68.7329 245.563 68.2796 246.243 67.7196 246.75C67.1329 247.256 66.4529 247.576 65.6796 247.71C64.9062 247.87 64.0662 247.79 63.1596 247.47ZM62.7996 237.31L62.7996 224.91C62.7996 224.536 62.6262 224.27 62.2796 224.11C59.9596 223.336 58.0129 222.696 56.4396 222.19C54.8396 221.656 53.5329 221.23 52.5196 220.91C51.4796 220.563 50.6796 220.31 50.1196 220.15C49.5329 219.99 49.1196 219.883 48.8796 219.83C48.6129 219.776 48.4529 219.763 48.3996 219.79C48.3462 219.816 48.3196 219.856 48.3196 219.91L48.3196 235.67C48.3196 235.883 48.4262 236.03 48.6396 236.11C48.8262 236.163 48.9862 236.11 49.1196 235.95L50.9996 233.87C53.9329 234.83 56.1996 235.563 57.7996 236.07C59.3996 236.576 60.5729 236.936 61.3196 237.15C62.0396 237.363 62.4662 237.47 62.5996 237.47C62.7329 237.443 62.7996 237.39 62.7996 237.31ZM65.5196 208.193C64.7196 207.9 64.3196 207.326 64.3196 206.473L64.3196 187.473C64.3196 187.26 64.2129 187.126 63.9996 187.073L58.1596 185.113L58.1596 191.593C58.1596 192.18 57.9196 192.66 57.4396 193.033C56.9329 193.406 56.3862 193.486 55.7996 193.273L52.9196 192.273L52.9196 183.313L47.3596 181.433C47.2262 181.38 47.0929 181.406 46.9596 181.513C46.8262 181.593 46.7596 181.713 46.7596 181.873L46.7596 202.313C46.5462 202.233 46.3329 202.153 46.1196 202.073C45.8796 201.993 45.6396 201.926 45.3996 201.873C45.0262 201.74 44.5996 201.593 44.1196 201.433C43.6396 201.246 43.1729 201.086 42.7196 200.953C41.9196 200.66 41.5196 200.1 41.5196 199.273L41.5196 175.833C41.5196 175.06 41.6929 174.366 42.0396 173.753C42.3862 173.113 42.8396 172.593 43.3996 172.193C43.9596 171.793 44.6129 171.526 45.3596 171.393C46.0796 171.26 46.8396 171.326 47.6396 171.593L51.8796 172.993C52.4662 173.206 52.9596 173.486 53.3596 173.833C53.7329 174.18 54.0396 174.54 54.2796 174.913C54.5196 175.26 54.6929 175.58 54.7996 175.873C54.9062 176.166 54.9996 176.38 55.0796 176.513C55.0796 176.513 55.1462 176.406 55.2796 176.193C55.4129 175.98 55.6129 175.766 55.8796 175.553C56.1196 175.34 56.4396 175.18 56.8396 175.073C57.2396 174.94 57.7062 174.953 58.2396 175.113L62.8396 176.673C63.8529 177.02 64.7729 177.513 65.5996 178.153C66.4262 178.766 67.1329 179.486 67.7196 180.313C68.3062 181.113 68.7596 182.006 69.0796 182.993C69.3996 183.953 69.5596 184.953 69.5596 185.993L69.5596 209.473L65.5196 208.193Z" fill="white"/>
<defs>
<filter id="filter0_bi_1_20344" x="-19.4224" y="-19.1172" width="152.964" height="458.187" filterUnits="userSpaceOnUse" color-interpolation-filters="sRGB">
<feFlood flood-opacity="0" result="BackgroundImageFix"/>
<feGaussianBlur in="BackgroundImageFix" stdDeviation="9.9734"/>
<feComposite in2="SourceAlpha" operator="in" result="effect1_backgroundBlur_1_20344"/>
<feBlend mode="normal" in="SourceGraphic" in2="effect1_backgroundBlur_1_20344" result="shape"/>
<feColorMatrix in="SourceAlpha" type="matrix" values="0 0 0 0 0 0 0 0 0 0 0 0 0 0 0 0 0 0 127 0" result="hardAlpha"/>
<feOffset dy="21"/>
<feGaussianBlur stdDeviation="41.5"/>
<feComposite in2="hardAlpha" operator="arithmetic" k2="-1" k3="1"/>
<feColorMatrix type="matrix" values="0 0 0 0 0.526736 0 0 0 0 0.154167 0 0 0 0 1 0 0 0 0.5 0"/>
<feBlend mode="normal" in2="shape" result="effect2_innerShadow_1_20344"/>
</filter>
<linearGradient id="paint0_linear_1_20344" x1="-11.1725" y1="-72.5472" x2="110.797" y2="-72.2954" gradientUnits="userSpaceOnUse">
<stop offset="0.0364395" stop-color="#FBF4B7"/>
<stop offset="0.322909" stop-color="#31CDE2"/>
<stop offset="0.635422" stop-color="#5276FF"/>
<stop offset="1" stop-color="#D874FF"/>
</linearGradient>
</defs>
</svg>
