<svg width="490" height="522" viewBox="0 0 490 522" fill="none" xmlns="http://www.w3.org/2000/svg">
<g filter="url(#filter0_f_1_19817)">
<path d="M84 483.861H406C431.328 483.861 451.861 463.328 451.861 438V38.1394H84C58.6719 38.1394 38.1394 58.6719 38.1394 84V438C38.1394 463.328 58.6719 483.861 84 483.861Z" stroke="url(#paint0_linear_1_19817)" stroke-width="10.2788"/>
<path d="M84 483.861H406C431.328 483.861 451.861 463.328 451.861 438V38.1394H84C58.6719 38.1394 38.1394 58.6719 38.1394 84V438C38.1394 463.328 58.6719 483.861 84 483.861Z" stroke="url(#paint1_linear_1_19817)" stroke-width="10.2788"/>
</g>
<defs>
<filter id="filter0_f_1_19817" x="0.107883" y="0.107883" width="489.784" height="521.784" filterUnits="userSpaceOnUse" color-interpolation-filters="sRGB">
<feFlood flood-opacity="0" result="BackgroundImageFix"/>
<feBlend mode="normal" in="SourceGraphic" in2="BackgroundImageFix" result="shape"/>
<feGaussianBlur stdDeviation="16.4461" result="effect1_foregroundBlur_1_19817"/>
</filter>
<linearGradient id="paint0_linear_1_19817" x1="244.868" y1="386.109" x2="245.178" y2="33" gradientUnits="userSpaceOnUse">
<stop stop-color="#FF00AB"/>
<stop offset="0.9999" stop-color="#00A3FF"/>
<stop offset="1" stop-color="#4D00FF"/>
</linearGradient>
<linearGradient id="paint1_linear_1_19817" x1="-10.8621" y1="569.193" x2="446.487" y2="565.953" gradientUnits="userSpaceOnUse">
<stop offset="0.0364395" stop-color="#FBF4B7"/>
<stop offset="0.322909" stop-color="#31CDE2"/>
<stop offset="0.635422" stop-color="#5276FF"/>
<stop offset="1" stop-color="#D874FF"/>
</linearGradient>
</defs>
</svg>
